<svg xmlns="http://www.w3.org/2000/svg" width="168" height="28"><path data-name="Path 176" d="M162.042 16.472a2.366 2.366 0 0 1-2.185 2.635c-1.11 0-1.687-.415-1.687-1.405 0-1.518 1.7-1.658 3.183-1.658h.7zm-8.658-4.09a11.42 11.42 0 0 1 4.919-1.251c1.792 0 3.731.239 3.753 2.108-.647-.049-1.771-.2-2.769-.2-3.514 0-7.6.928-7.6 5.453 0 3.064 2.67 4.336 5.411 4.336a5.348 5.348 0 0 0 4.793-2.474h.07v2.108h6.585v-8.946c0-5.376-4.919-6.114-9-6.114a18.974 18.974 0 0 0-6.149.85zm-8.974-4.645l-1.82 9.656h-.049L140.7 7.737h-7.3l4.371 14.757h9.139l4.469-14.757zm-12.361-5.5h-7.1v3.956h7.1zm-7.119 20.26h7.119V7.737h-7.1zm-8.911-6.022a2.369 2.369 0 0 1-2.207 2.635c-1.1 0-1.658-.415-1.658-1.405 0-1.518 1.68-1.658 3.155-1.658h.7zm-8.679-4.09a11.5 11.5 0 0 1 4.919-1.251c1.771 0 3.731.239 3.753 2.108-.647-.049-1.771-.2-2.762-.2-3.556 0-7.6.928-7.6 5.453 0 3.064 2.649 4.336 5.39 4.336a5.306 5.306 0 0 0 4.786-2.474h.07v2.108h6.606v-8.946c0-5.376-4.919-6.114-9.009-6.114a18.974 18.974 0 0 0-6.163.85zM92.533 7.74v14.757h7.119V17.14a3.781 3.781 0 0 1 3.633-3.893 4.315 4.315 0 0 1 1.616.232V7.548a4.92 4.92 0 0 0-1.167-.141c-2.221 0-3.647 1.588-4.5 3.689h-.049V7.744zm-8.946 8.728a2.367 2.367 0 0 1-2.193 2.635c-1.1 0-1.68-.415-1.68-1.405 0-1.518 1.708-1.658 3.162-1.658h.7zm-8.658-4.09a11.419 11.419 0 0 1 4.922-1.258c1.771 0 3.731.239 3.753 2.108-.647-.049-1.771-.2-2.762-.2-3.514 0-7.6.928-7.6 5.453 0 3.064 2.642 4.336 5.383 4.336a5.376 5.376 0 0 0 4.814-2.474h.049v2.108h6.606v-8.939c0-5.376-4.919-6.114-9-6.114a18.974 18.974 0 0 0-6.149.85zm-4.1-9.276a32.662 32.662 0 0 0-6.514-.7c-4.469 0-10.14.97-10.14 6.367 0 7.695 10.351 5.263 10.351 7.941 0 1-1.6 1.342-3.366 1.342a18.145 18.145 0 0 1-6.767-1.293v5.116a34.378 34.378 0 0 0 8.11.949c4.378 0 9.6-1.335 9.6-6.627 0-7.618-10.337-5.193-10.337-7.73 0-1.293 2.052-1.321 3.226-1.321a17.8 17.8 0 0 1 5.847 1zM44.434.002L23.38 4.05l4.048 20.752 21.061-4.041L44.441 0zM2.249 8.842L5.242 24.62c7.372-5.278 14.2-6.219 17.456-3.795l-3.2-15.91C17.39 2.807 9.751 2.589 2.26 8.843m-2.263-.794c7.407-6.95 18.566-8.742 21.44-3.795l4.111 21.082c-3.876-4.816-11.409-5.308-21.638 2.935z" fill="#24282b"></path></svg>

